Coordinates
version=1
nRows=12
nColumns=24
inDegrees=yes

Units are S.I. units (second, meters, Newtons, ...)
Angles are in degrees.

endheader
time	pelvis_tilt	pelvis_list	pelvis_rotation	pelvis_tx	pelvis_ty	pelvis_tz	hip_flexion_r	hip_adduction_r	hip_rotation_r	knee_angle_r	ankle_angle_r	subtalar_angle_r	mtp_angle_r	hip_flexion_l	hip_adduction_l	hip_rotation_l	knee_angle_l	ankle_angle_l	subtalar_angle_l	mtp_angle_l	lumbar_extension	lumbar_bending	lumbar_rotation
      4.71000000	      7.66625944	      3.20034042	      5.51761512	     -1.52804691	      0.88282764	      0.27877190	     19.28128772	     -3.03821858	     -7.82592338	    -12.09531727	     14.63536559	      7.14809500	      0.00000000	    -30.15954655	      4.94403179	      6.31177368	    -13.29198244	     13.23685925	     -6.44507738	      0.00000000	    -29.28818027	     -1.98729811	    -10.00776852
      4.72000000	      7.45765275	      2.86542955	      5.32463748	     -1.50997033	      0.88163900	      0.28016329	     20.23117841	     -2.65059095	     -7.75399834	    -15.05586705	     14.24627520	      7.20933398	      0.00000000	    -28.65888478	      4.38292311	      3.86152580	    -17.06647760	     11.77543218	     -4.21381566	      0.00000000	    -28.69785623	     -1.59794237	     -9.98009655
      4.73000000	      7.45348493	      2.33748542	      5.16098867	     -1.49200948	      0.88109584	      0.28150461	     20.83413046	     -2.06026648	     -7.78406239	    -17.88371433	     13.99728616	      7.25345211	      0.00000000	    -27.08858812	      3.49085423	      1.58459325	    -21.12917333	      9.65914203	     -2.31889720	      0.00000000	    -28.35176876	     -0.94516058	     -9.91892465
      4.74000000	      7.52444039	      1.70473529	      5.09569858	     -1.47430276	      0.88106569	      0.28265383	     21.18726092	     -1.38127437	     -7.91329083	    -20.47671575	     14.06268614	      7.23265709	      0.00000000	    -25.31572454	      2.40784278	     -0.13222840	    -25.44015930	      6.78796360	     -1.13364193	      0.00000000	    -28.13404078	     -0.11644128	     -9.94108030
      4.75000000	      7.64317222	      0.96274137	      5.17311067	     -1.45693073	      0.88145515	      0.28359098	     21.27382880	     -0.61102289	     -8.20297556	    -22.72582115	     14.47867477	      7.13330376	      0.00000000	    -23.29657564	      1.13024062	     -1.34431075	    -29.98847317	      3.60443087	     -0.30401360	      0.00000000	    -28.02385909	      0.88310331	    -10.02012337
      4.76000000	      7.76887668	      0.12644954	      5.41698119	     -1.43994840	      0.88213673	      0.28430990	     21.09586812	      0.24737401	     -8.63386476	    -24.53062603	     15.16793644	      6.91906425	      0.00000000	    -21.01407588	     -0.30486972	     -2.07116497	    -34.69728017	      0.56763315	      0.38584703	      0.00000000	    -27.97659374	      2.03300914	    -10.14219596
      4.77000000	      7.84913707	     -0.77565377	      5.83154684	     -1.42336867	      0.88297829	      0.28484843	     20.69152452	      1.18250768	     -9.16677982	    -25.83193062	     16.03701927	      6.58312370	      0.00000000	    -18.46372432	     -1.83008335	     -2.33128851	    -39.45015126	     -1.85982643	      1.10685546	      0.00000000	    -27.91758530	      3.27833737	    -10.25787373
      4.78000000	      7.84488529	     -1.68760682	      6.38954704	     -1.40717960	      0.88389964	      0.28526628	     20.11393888	      2.15276682	     -9.74832823	    -26.63049166	     16.99314083	      6.17968601	      0.00000000	    -15.66783579	     -3.33674710	     -2.17967396	    -44.11172850	     -3.36878092	      1.88784929	      0.00000000	    -27.79353075	      4.53453810	    -10.34354719
      4.79000000	      7.74414629	     -2.53856873	      7.04410991	     -1.39134903	      0.88492363	      0.28562242	     19.40449534	      3.09604606	    -10.32238856	    -26.97181442	     17.97708667	      5.77619269	      0.00000000	    -12.68431577	     -4.70782764	     -1.72024493	    -48.53173542	     -3.87931120	      2.67589061	      0.00000000	    -27.57467016	      5.69930030	    -10.39223043
      4.80000000	      7.58311259	     -3.26728459	      7.73493688	     -1.37584680	      0.88618423	      0.28594181	     18.56003800	      3.95037390	    -10.87232518	    -26.92834357	     18.93620750	      5.41984370	      0.00000000	     -9.62030122	     -5.83782976	     -1.06706914	    -52.57597532	     -3.52968979	      3.33715685	      0.00000000	    -27.31522583	      6.69549581	    -10.37910653
      4.81000000	      7.37391836	     -3.82641634	      8.41677520	     -1.36060765	      0.88782369	      0.28622992	     17.57333720	      4.68053725	    -11.30403377	    -26.53224278	     19.83144045	      5.18741243	      0.00000000	     -6.55010977	     -6.64985571	     -0.31506174	    -56.13845738	     -2.57704291	      3.79455087	      0.00000000	    -27.02556120	      7.46814582	    -10.30757792
      4.82000000	      7.17590957	     -4.18509686	      9.04647231	     -1.34559036	      0.88997768	      0.28649089	     16.42036755	      5.24365479	    -11.66120651	    -25.87745893	     20.63132530	      5.05700212	      0.00000000	     -3.58591280	     -7.13280782	      0.39163806	    -59.15477859	     -1.31554399	      4.01697049	      0.00000000	    -26.78984586	      7.98265137	    -10.17123819
